<svg width="1923" height="84" viewBox="0 0 1923 84" fill="none" xmlns="http://www.w3.org/2000/svg">
<path d="M0.498843 41.6541C144.118 4.51768 236.924 -2.68009 315.632 4.49355C344.393 7.11487 371.27 11.6532 398.065 17.3571C398.237 19.9626 400.408 22.0227 403.059 22.0227C404.961 22.0227 406.614 20.9637 407.462 19.4039C430.542 24.5418 453.718 30.4788 478.139 36.7351C499.707 42.2601 522.246 48.0341 546.549 53.7265L546.591 53.7362L546.633 53.7423C549.859 54.2115 553.064 54.662 556.25 55.0943C556.661 57.4425 558.712 59.2273 561.18 59.2273C563.191 59.2273 564.926 58.0424 565.721 56.3333C620.364 63.2144 669.213 64.7162 714.582 62.9354C715.27 64.876 717.123 66.266 719.302 66.266C721.636 66.266 723.598 64.6693 724.151 62.5094C777.03 59.8773 825.307 52.8958 872.762 44.9922C873.492 46.8507 875.303 48.1665 877.423 48.1665C880.119 48.1665 882.317 46.0368 882.424 43.3696C891.555 41.8247 900.665 40.2542 909.781 38.6827C926.001 35.8865 942.24 33.0869 958.652 30.4224C982.26 26.5894 1006.23 23.0342 1031.02 20.168C1031.82 21.8589 1033.55 23.0282 1035.54 23.0282C1037.93 23.0282 1039.93 21.3554 1040.43 19.1181C1086.06 14.2163 1134.6 11.7816 1188.83 14.3128C1189.41 16.4377 1191.35 18.0006 1193.66 18.0006C1195.79 18.0006 1197.61 16.6743 1198.33 14.8042C1243.37 17.3602 1292.34 23.3548 1346.78 34.1672C1346.81 36.9054 1349.04 39.1167 1351.79 39.1167C1353.84 39.1167 1355.61 37.8802 1356.38 36.1115C1380.18 41.029 1405.02 46.8612 1431.02 53.7193C1456.08 60.3291 1480.63 65.889 1504.9 70.367C1504.93 73.1048 1507.16 75.3158 1509.91 75.3158C1512.04 75.3158 1513.87 73.9794 1514.58 72.0981C1644.66 94.6078 1767.94 85.7652 1923 40.6406L1922.44 38.709C1767.66 83.7554 1644.67 92.572 1514.91 70.1135C1514.8 67.4459 1512.6 65.3158 1509.91 65.3158C1507.82 65.3158 1506.04 66.586 1505.29 68.3932C1481.05 63.9234 1456.55 58.3731 1431.53 51.7741C1405.5 44.9078 1380.63 39.0682 1356.79 34.144C1356.79 34.1349 1356.79 34.1258 1356.79 34.1167C1356.79 31.3553 1354.55 29.1167 1351.79 29.1167C1349.7 29.1167 1347.92 30.3867 1347.16 32.1935C1292.72 21.3799 1243.73 15.3766 1198.67 12.8088C1198.57 10.1363 1196.36 8.0006 1193.66 8.0006C1191.14 8.0006 1189.05 9.8671 1188.71 12.2938C1134.55 9.77835 1086.05 12.2051 1040.46 17.0924C1040.02 14.7783 1037.99 13.0282 1035.54 13.0282C1032.78 13.0282 1030.54 15.2668 1030.54 18.0282C1030.54 18.0854 1030.54 18.1423 1030.54 18.199C1005.81 21.0641 981.888 24.6125 958.332 28.4371C941.901 31.1048 925.65 33.906 909.425 36.7027L909.423 36.7032C900.316 38.2729 891.218 39.8412 882.1 41.3837C881.381 39.5026 879.558 38.1665 877.423 38.1665C874.711 38.1665 872.503 40.3206 872.42 43.0093C825.061 50.8963 776.933 57.8575 724.247 60.4919C723.875 58.0981 721.802 56.266 719.302 56.266C716.649 56.266 714.478 58.3277 714.307 60.9346C669.148 62.6978 620.543 61.1985 566.184 54.3649C566.185 54.3192 566.186 54.2733 566.186 54.2273C566.186 51.4659 563.945 49.2273 561.18 49.2273C558.814 49.2273 556.831 50.8681 556.309 53.073C553.212 52.6521 550.097 52.214 546.962 51.7582C522.774 46.0923 500.303 40.3357 478.775 34.8208L478.772 34.82C454.359 28.5661 431.16 22.6229 408.044 17.4749C408.058 17.3259 408.065 17.1751 408.065 17.0227C408.065 14.2613 405.824 12.0227 403.059 12.0227C400.878 12.0227 399.023 13.4163 398.337 15.3607C371.516 9.65638 344.596 5.11407 315.813 2.49072C236.809 -4.70985 143.764 2.53257 0 39.7065L0.498843 41.6541Z" fill="#0F0F10" fill-opacity="0.4"/>
</svg>
